<svg width="28" height="25" viewBox="0 0 28 25" fill="none" xmlns="http://www.w3.org/2000/svg">
<mask id="mask0_197_1143" style="mask-type:alpha" maskUnits="userSpaceOnUse" x="0" y="0" width="17" height="17">
<rect width="16.7384" height="16.7384" transform="matrix(1 0 0 -1 0 16.7384)" fill="#D9D9D9"/>
</mask>
<g mask="url(#mask0_197_1143)">
<path d="M2.09238 5.579C1.72041 5.579 1.39494 5.71849 1.11597 5.99746C0.836997 6.27644 0.69751 6.60191 0.69751 6.97387V8.36874C0.69751 8.45011 0.706228 8.53729 0.723664 8.63028C0.741099 8.72327 0.767253 8.81045 0.802125 8.89182L2.89443 13.8087C2.99904 14.0412 3.1734 14.2388 3.4175 14.4016C3.66161 14.5643 3.91733 14.6457 4.18468 14.6457H9.76416C10.1477 14.6457 10.4761 14.5091 10.7493 14.2359C11.0224 13.9627 11.159 13.6344 11.159 13.2508V6.15439C11.159 5.96841 11.1212 5.79114 11.0457 5.62259C10.9701 5.45405 10.8684 5.30584 10.7406 5.17798L6.95698 1.41183C6.78263 1.2491 6.5763 1.1503 6.33801 1.11542C6.09972 1.08055 5.87015 1.12124 5.64929 1.23747C5.42844 1.35371 5.26861 1.51645 5.16981 1.72568C5.071 1.93491 5.05066 2.14995 5.10878 2.37081L5.8934 5.579H2.09238ZM13.9488 14.6457C14.3324 14.6457 14.6607 14.5091 14.9339 14.2359C15.2071 13.9627 15.3436 13.6344 15.3436 13.2508V6.97387C15.3436 6.59028 15.2071 6.26191 14.9339 5.98875C14.6607 5.71559 14.3324 5.579 13.9488 5.579C13.5652 5.579 13.2368 5.71559 12.9636 5.98875C12.6905 6.26191 12.5539 6.59028 12.5539 6.97387V13.2508C12.5539 13.6344 12.6905 13.9627 12.9636 14.2359C13.2368 14.5091 13.5652 14.6457 13.9488 14.6457Z" fill="white"/>
</g>
<mask id="mask1_197_1143" style="mask-type:alpha" maskUnits="userSpaceOnUse" x="11" y="7" width="17" height="18">
<rect width="16.7384" height="16.7384" transform="matrix(1 0 0 -1 11.2615 24.1813)" fill="#D9D9D9"/>
</mask>
<g mask="url(#mask1_197_1143)">
<path d="M25.9077 18.6021C26.2797 18.6021 26.6052 18.4626 26.8842 18.1837C27.1631 17.9047 27.3026 17.5792 27.3026 17.2073V15.8124C27.3026 15.731 27.2939 15.6438 27.2765 15.5509C27.259 15.4579 27.2329 15.3707 27.198 15.2893L25.1057 10.3724C25.0011 10.1399 24.8267 9.94232 24.5826 9.77958C24.3385 9.61685 24.0828 9.53548 23.8154 9.53548H18.236C17.8524 9.53548 17.524 9.67206 17.2508 9.94522C16.9777 10.2184 16.8411 10.5468 16.8411 10.9303V18.0267C16.8411 18.2127 16.8789 18.39 16.9544 18.5585C17.03 18.7271 17.1317 18.8753 17.2596 19.0032L21.0431 22.7693C21.2175 22.932 21.4238 23.0308 21.6621 23.0657C21.9004 23.1006 22.13 23.0599 22.3508 22.9437C22.5717 22.8274 22.7315 22.6647 22.8303 22.4555C22.9291 22.2462 22.9495 22.0312 22.8913 21.8103L22.1067 18.6021H25.9077ZM14.0514 9.53548C13.6678 9.53548 13.3394 9.67206 13.0662 9.94522C12.7931 10.2184 12.6565 10.5468 12.6565 10.9303V17.2073C12.6565 17.5908 12.7931 17.9192 13.0662 18.1924C13.3394 18.4655 13.6678 18.6021 14.0514 18.6021C14.435 18.6021 14.7633 18.4655 15.0365 18.1924C15.3097 17.9192 15.4462 17.5908 15.4462 17.2073V10.9303C15.4462 10.5468 15.3097 10.2184 15.0365 9.94522C14.7633 9.67206 14.435 9.53548 14.0514 9.53548Z" fill="white"/>
</g>
</svg>
